<?xml version="1.0" encoding="UTF-8"?>
<svg width="42px" height="25px" viewBox="0 0 42 25" version="1.1" xmlns="http://www.w3.org/2000/svg" xmlns:xlink="http://www.w3.org/1999/xlink">
    <!-- Generator: Sketch 50.2 (55047) - http://www.bohemiancoding.com/sketch -->
    <title>AmericanExpress-dark</title>
    <desc>Created with Sketch.</desc>
    <defs></defs>
    <g id="Symbols" stroke="none" stroke-width="1" fill="none" fill-rule="evenodd">
        <g id="Footer" transform="translate(-889.000000, -18.000000)">
            <g id="Icons-Footer">
                <g>
                    <g id="Payment-Methods-Icons" transform="translate(688.000000, 18.000000)">
                        <g id="AmericanExpress-dark" transform="translate(201.000000, 0.000000)">
                            <rect id="Rectangle" fill="#0072CE" x="0" y="0" width="41.6666667" height="25" rx="4"></rect>
                            <path d="M35.1697339,14.4439929 L33.6976335,14.4439929 C33.5506579,14.4439929 33.4530139,14.4494803 33.3707605,14.5048623 C33.2855514,14.5594313 33.2527316,14.6404211 33.2527316,14.7473236 C33.2527316,14.874448 33.3246905,14.9609252 33.4293673,14.9983207 C33.5145765,15.0278917 33.606105,15.0365292 33.7406458,15.0365292 L34.1784129,15.0482153 C34.6201552,15.0590885 34.9150237,15.1347941 35.0948191,15.3194345 C35.127537,15.345144 35.1472085,15.3740036 35.1697339,15.4028632 L35.1697339,14.4439929 Z M35.1697339,16.6656737 C34.9735286,16.9517292 34.5912085,17.0967385 34.0736342,17.0967385 L32.5137765,17.0967385 L32.5137765,16.3741308 L34.0673149,16.3741308 C34.2214252,16.3741308 34.3292617,16.3539088 34.3941878,16.2907022 C34.4504503,16.238572 34.4896914,16.1628664 34.4896914,16.0709018 C34.4896914,15.9727385 34.4504503,15.8947973 34.3910281,15.8480529 C34.3324214,15.796634 34.2471103,15.7732618 34.106454,15.7732618 C33.3480313,15.7475524 32.4018631,15.796634 32.4018631,14.7302517 C32.4018631,14.2414677 32.7131415,13.7269743 33.5607484,13.7269743 L35.1696319,13.7269743 L35.1696319,13.0564968 L33.6748023,13.0564968 C33.223683,13.0564968 32.8959947,13.1642122 32.6639118,13.3316791 L32.6639118,13.0564968 L30.4528564,13.0564968 C30.0992792,13.0564968 29.6842412,13.1438885 29.487934,13.3316791 L29.487934,13.0564968 L25.5395698,13.0564968 L25.5395698,13.3316791 C25.2253355,13.10568 24.6951225,13.0564968 24.450401,13.0564968 L21.8460177,13.0564968 L21.8460177,13.3316791 C21.597423,13.0916567 21.0445827,13.0564968 20.7076192,13.0564968 L17.7928747,13.0564968 L17.1258786,13.7761575 L16.5011813,13.0564968 L12.1471562,13.0564968 L12.1471562,17.7585784 L16.4192337,17.7585784 L17.1065129,17.0275364 L17.7539394,17.7585784 L20.3872694,17.7609157 L20.3872694,16.6548005 L20.6461585,16.6548005 C20.9955568,16.6601863 21.4076389,16.646163 21.7712048,16.4894676 L21.7712048,17.7584768 L23.943223,17.7584768 L23.943223,16.5329602 L24.0480018,16.5329602 C24.1817271,16.5329602 24.1948754,16.5384476 24.1948754,16.6716692 L24.1948754,17.7583752 L30.7930815,17.7583752 C31.2119926,17.7583752 31.6498617,17.6514728 31.8923408,17.4574834 L31.8923408,17.7583752 L33.9852654,17.7583752 C34.4207902,17.7583752 34.8461225,17.6975058 35.1697339,17.5416234 L35.1697339,16.6656737 L35.1697339,16.6656737 Z M31.9477879,15.3194345 C32.105058,15.481719 32.1893498,15.6865814 32.1893498,16.0334047 C32.1893498,16.7583496 31.7350708,17.0967385 30.9204875,17.0967385 L29.3472777,17.0967385 L29.3472777,16.3741308 L30.9141682,16.3741308 C31.0673612,16.3741308 31.1760131,16.3539088 31.2440989,16.2907022 C31.2996479,16.238572 31.3395005,16.1628664 31.3395005,16.0709018 C31.3395005,15.9727385 31.2963863,15.8947973 31.2409392,15.8480529 C31.1791728,15.796634 31.0939636,15.7732618 30.9533073,15.7732618 C30.1979424,15.7475524 29.251978,15.796634 29.251978,14.7302517 C29.251978,14.2414677 29.5599949,13.7269743 30.4067864,13.7269743 L32.0260662,13.7269743 L32.0260662,14.4441962 L30.5443849,14.4441962 C30.3975112,14.4441962 30.3020076,14.4496836 30.2207736,14.5050655 C30.1323028,14.5596346 30.099483,14.6406243 30.099483,14.7475268 C30.099483,14.8746513 30.1746016,14.9611284 30.2762207,14.998524 C30.3614298,15.0280949 30.4529583,15.0367325 30.5905569,15.0367325 L31.0253682,15.0484186 C31.4638488,15.0590885 31.7648329,15.1346925 31.9477879,15.3194345 L31.9477879,15.3194345 Z M24.6593469,15.1113203 C24.5513066,15.1752382 24.4176831,15.1807256 24.260515,15.1807256 L23.2792847,15.1807256 L23.2792847,14.4238725 L24.2738672,14.4238725 C24.4176831,14.4238725 24.561601,14.4269211 24.6593469,14.4847419 C24.7640237,14.5393109 24.8266056,14.6436729 24.8266056,14.7878693 C24.8266056,14.9320656 24.7640237,15.0482153 24.6593469,15.1113203 L24.6593469,15.1113203 Z M25.1471592,15.530699 C25.3269546,15.5968525 25.4739302,15.715441 25.5428314,15.8136043 C25.6568853,15.9781243 25.6733971,16.1316696 25.6766587,16.4286998 L25.6766587,17.0967385 L24.8657447,17.0967385 L24.8657447,16.6751242 C24.8657447,16.4723957 24.8853143,16.1722153 24.735179,16.0155199 C24.61715,15.8947973 24.4372527,15.8659377 24.142588,15.8659377 L23.2793866,15.8659377 L23.2793866,17.0967385 L22.4677591,17.0967385 L22.4677591,13.7268727 L24.3325759,13.7268727 C24.7414983,13.7268727 25.0393227,13.7448591 25.3044292,13.8859053 C25.5593432,14.0394505 25.719671,14.2498004 25.719671,14.6342224 C25.719569,15.172088 25.3597744,15.446559 25.1471592,15.530699 L25.1471592,15.530699 Z M26.1675287,13.7268727 L28.8633386,13.7268727 L28.8633386,14.4237709 L26.9719195,14.4237709 L26.9719195,15.0364276 L28.8171667,15.0364276 L28.8171667,15.723977 L26.9719195,15.723977 L26.9719195,16.3944545 L28.8633386,16.397503 L28.8633386,17.0967385 L26.1675287,17.0967385 L26.1675287,13.7268727 L26.1675287,13.7268727 Z M20.7179136,15.282039 L19.6741014,15.282039 L19.6741014,14.4238725 L20.7272907,14.4238725 C21.0188976,14.4238725 21.2213203,14.5423595 21.2213203,14.8370525 C21.2213203,15.1284938 21.0282747,15.282039 20.7179136,15.282039 L20.7179136,15.282039 Z M18.8696087,16.7902577 L17.6294892,15.4175978 L18.8696087,14.0885322 L18.8696087,16.7902577 L18.8696087,16.7902577 Z M15.6670284,16.3944545 L13.681125,16.3944545 L13.681125,15.723977 L15.4544132,15.723977 L15.4544132,15.0364276 L13.681125,15.0364276 L13.681125,14.4237709 L15.7061676,14.4237709 L16.589652,15.4058101 L15.6670284,16.3944545 L15.6670284,16.3944545 Z M22.0884968,14.8370525 C22.0884968,15.7731602 21.3879674,15.9664382 20.6819341,15.9664382 L19.6741014,15.9664382 L19.6741014,17.0967385 L18.1041531,17.0967385 L17.1095706,15.9811729 L16.0759509,17.0967385 L12.8765303,17.0967385 L12.8765303,13.7268727 L16.1251806,13.7268727 L17.1189477,14.8314635 L18.14635,13.7268727 L20.7272907,13.7268727 C21.368296,13.7268727 22.0884968,13.9037901 22.0884968,14.8370525 L22.0884968,14.8370525 Z" id="EXPRESS" fill="#FFFFFF"></path>
                            <path d="M9.02285429,9.84342797 L8.470014,8.50033899 L7.92033337,9.84342797 L9.02285429,9.84342797 Z M21.2018527,9.30861089 C21.0908566,9.37578058 20.9595774,9.37801618 20.8023074,9.37801618 L19.821077,9.37801618 L19.821077,8.62969907 L20.8156595,8.62969907 C20.9564177,8.62969907 21.1032914,8.63599941 21.198693,8.69046681 C21.3034718,8.73954845 21.368296,8.84401205 21.368296,8.98831003 C21.368296,9.13555494 21.3066314,9.25404187 21.2018527,9.30861089 L21.2018527,9.30861089 Z M28.2018464,9.84342797 L27.6428907,8.50033899 L27.0869926,9.84342797 L28.2018464,9.84342797 L28.2018464,9.84342797 Z M15.1534292,11.2971793 L14.3253919,11.2971793 L14.3223341,8.65855867 L13.1511158,11.2971793 L12.4419228,11.2971793 L11.2676468,8.65622145 L11.2676468,11.2971793 L9.62482236,11.2971793 L9.31446124,10.545712 L7.63270148,10.545712 L7.3191807,11.2971793 L6.44191365,11.2971793 L7.88832897,7.92812638 L9.08839196,7.92812638 L10.4621349,11.1179246 L10.4621349,7.92812638 L11.7804307,7.92812638 L12.8374931,10.2136234 L13.808531,7.92812638 L15.1533273,7.92812638 L15.1533273,11.2971793 L15.1534292,11.2971793 Z M18.4536534,11.2971793 L15.7553973,11.2971793 L15.7553973,7.92812638 L18.4536534,7.92812638 L18.4536534,8.62969907 L16.5631516,8.62969907 L16.5631516,9.23696999 L18.4082969,9.23696999 L18.4082969,9.92756791 L16.5631516,9.92756791 L16.5631516,10.6003826 L18.4536534,10.6003826 L18.4536534,11.2971793 L18.4536534,11.2971793 Z M22.2580998,8.83547612 C22.2580998,9.37263041 21.8985089,9.65014997 21.6889515,9.73347697 C21.8656891,9.80054505 22.0166398,9.91903198 22.0884968,10.0171952 C22.2025507,10.1847638 22.2222222,10.3344476 22.2222222,10.6353393 L22.2222222,11.2971793 L21.407537,11.2971793 L21.4044793,10.8723132 C21.4044793,10.6695847 21.4239469,10.3780418 21.2769713,10.2159606 C21.1589423,10.0974737 20.979045,10.0717643 20.6882535,10.0717643 L19.8211789,10.0717643 L19.8211789,11.2971793 L19.0135265,11.2971793 L19.0135265,7.92812638 L20.8713105,7.92812638 C21.284106,7.92812638 21.5882497,7.93899954 21.8493812,8.08949623 C22.1049067,8.23999292 22.2580998,8.45969167 22.2580998,8.83547612 L22.2580998,8.83547612 Z M23.5507105,11.2971793 L22.7265463,11.2971793 L22.7265463,7.92812638 L23.5507105,7.92812638 L23.5507105,11.2971793 L23.5507105,11.2971793 Z M33.1120753,11.2971793 L31.9674594,11.2971793 L30.4364465,8.76850966 L30.4364465,11.2971793 L28.7914816,11.2971793 L28.4771454,10.545712 L26.7992588,10.545712 L26.4942997,11.2971793 L25.5491507,11.2971793 C25.1565363,11.2971793 24.6594488,11.2106005 24.3779324,10.924545 C24.0940718,10.6384895 23.9463827,10.2510189 23.9463827,9.63836225 C23.9463827,9.1387051 24.0346496,8.68193088 24.3818056,8.3209827 C24.642937,8.0521007 25.0518595,7.92812638 25.608471,7.92812638 L26.3904383,7.92812638 L26.3904383,8.65002273 L25.6248809,8.65002273 C25.3301142,8.65002273 25.163671,8.6937186 25.0033432,8.84960106 C24.8656428,8.9914602 24.7711585,9.25963087 24.7711585,9.61275444 C24.7711585,9.97370262 24.8431174,10.2339471 24.9932527,10.4039545 C25.117601,10.5372777 25.3435683,10.5777218 25.5561835,10.5777218 L25.918934,10.5777218 L27.0573325,7.928228 L28.267588,7.928228 L29.6351135,11.114876 L29.6351135,7.928228 L30.8649385,7.928228 L32.2847514,10.2745944 L32.2847514,7.928228 L33.1120753,7.928228 L33.1120753,11.2971793 L33.1120753,11.2971793 Z M6.43253657,11.9589176 L7.81259882,11.9589176 L8.12377533,11.2106005 L8.82043157,11.2106005 L9.13079269,11.9589176 L11.8461722,11.9589176 L11.8461722,11.3868066 L12.0885494,11.9613564 L13.4981699,11.9613564 L13.7405472,11.3782707 L13.7405472,11.9589176 L20.4887866,11.9589176 L20.4856269,10.7305557 L20.6161926,10.7305557 C20.7076192,10.7337058 20.7343235,10.7421401 20.7343235,10.8926368 L20.7343235,11.9589176 L24.2245356,11.9589176 L24.2245356,11.6729637 C24.506052,11.8233588 24.9439211,11.9589176 25.5201021,11.9589176 L26.9884313,11.9589176 L27.3026656,11.2106005 L27.9993218,11.2106005 L28.3066252,11.9589176 L31.1361605,11.9589176 L31.1361605,11.2480976 L31.5646525,11.9589176 L33.8320723,11.9589176 L33.8320723,7.26008772 L31.5880952,7.26008772 L31.5880952,7.81502522 L31.2738609,7.26008772 L28.971277,7.26008772 L28.971277,7.81502522 L28.6827278,7.26008772 L25.5724915,7.26008772 C25.0518595,7.26008772 24.5942169,7.33254156 24.2245356,7.53445711 L24.2245356,7.26008772 L22.0782024,7.26008772 L22.0782024,7.53445711 C21.8429599,7.32634285 21.5224063,7.26008772 21.1659752,7.26008772 L13.3245919,7.26008772 L12.7984559,8.47371499 L12.2581524,7.26008772 L9.7883098,7.26008772 L9.7883098,7.81502522 L9.51698589,7.26008772 L7.41060727,7.26008772 L6.43243464,9.49416589 L6.43243464,11.9589176 L6.43253657,11.9589176 Z" id="AMERICAN" fill="#FFFFFF"></path>
                        </g>
                    </g>
                </g>
            </g>
        </g>
    </g>
</svg>