<?xml version="1.0" encoding="UTF-8"?>
<svg width="11px" height="19px" viewBox="0 0 11 19" version="1.1" xmlns="http://www.w3.org/2000/svg" xmlns:xlink="http://www.w3.org/1999/xlink">
    <!-- Generator: Sketch 50.2 (55047) - http://www.bohemiancoding.com/sketch -->
    <title>arrow-right</title>
    <desc>Created with Sketch.</desc>
    <defs></defs>
    <g id="1---Home" stroke="none" stroke-width="1" fill="none" fill-rule="evenodd">
        <g id="Default-Desktop" transform="translate(-1414.000000, -459.000000)">
            <g id="Slider" transform="translate(-2.000000, 129.000000)">
                <g id="entypo/arrow-left6" transform="translate(1422.000000, 340.000000) scale(-1, 1) translate(-1422.000000, -340.000000) translate(1402.000000, 320.000000)">
                    <rect id="Rectangle-path" x="0" y="0" width="40" height="40"></rect>
                    <path d="M25.582,25.882 C26.112,26.418 26.112,27.284 25.582,27.82 C25.05,28.354 24.194,28.356 23.662,27.82 L16.078,20.082 C15.548,19.546 15.548,18.678 16.078,18.142 L23.662,10.404 C24.194,9.868 25.05,9.868 25.582,10.404 C26.112,10.94 26.112,11.806 25.582,12.342 L19.364,19.112 L25.582,25.882 L25.582,25.882 Z" id="Shape" fill="#4A4A4A" fill-rule="evenodd"></path>
                </g>
            </g>
        </g>
    </g>
</svg>