<?xml version="1.0" encoding="UTF-8"?>
<svg width="25px" height="15px" viewBox="0 0 25 15" version="1.1" xmlns="http://www.w3.org/2000/svg" xmlns:xlink="http://www.w3.org/1999/xlink">
    <!-- Generator: Sketch 50.2 (55047) - http://www.bohemiancoding.com/sketch -->
    <title>noun_655505_cc</title>
    <desc>Created with Sketch.</desc>
    <defs></defs>
    <g id="1---Home" stroke="none" stroke-width="1" fill="none" fill-rule="evenodd">
        <g id="Default-Off-Canvas-2" transform="translate(-11.000000, -16.000000)" fill="#4A4A4A" fill-rule="nonzero">
            <g id="noun_655505_cc" transform="translate(11.000000, 16.000000)">
                <g id="Group" transform="translate(0.000000, 0.637820)">
                    <path d="M7.34002352,0.00249020934 C7.21394485,0.0137973354 7.09525581,0.066895067 7.00279783,0.15335433 L0.187289323,6.4009038 C0.0680496242,6.50860073 -2.52224482e-16,6.66176003 0,6.8224359 C2.52224482e-16,6.98311177 0.0680496242,7.13627107 0.187289323,7.243968 L7.00279783,13.4915175 C7.15324038,13.6288912 7.36568135,13.6752804 7.55969407,13.6131228 C7.75370678,13.5509652 7.89963918,13.3897608 7.94224364,13.190539 C7.98484809,12.9913171 7.91761313,12.7845259 7.7659928,12.6484533 L2.03315621,7.39483212 L24.4231666,7.39483212 C24.7232265,7.39909182 25,7.12695424 25,6.82687308 C25,6.52679192 24.7232265,6.25468274 24.4231666,6.25891404 L2.03315621,6.25891404 L7.7659928,0.996418534 C7.95200247,0.834460778 8.01224138,0.570973421 7.91508623,0.344278057 C7.81793107,0.117582692 7.5855858,-0.0205114448 7.34002352,0.00249020934 Z" id="Shape"></path>
                </g>
            </g>
        </g>
    </g>
</svg>