<?xml version="1.0" encoding="UTF-8"?>
<svg width="50px" height="47px" viewBox="0 0 50 47" version="1.1" xmlns="http://www.w3.org/2000/svg" xmlns:xlink="http://www.w3.org/1999/xlink">
    <!-- Generator: Sketch 51.1 (57501) - http://www.bohemiancoding.com/sketch -->
    <title>noun_173026_cc</title>
    <desc>Created with Sketch.</desc>
    <defs></defs>
    <g id="14---Hilfe" stroke="none" stroke-width="1" fill="none" fill-rule="evenodd">
        <g id="Desktop-HD-Copy-10" transform="translate(-845.000000, -346.000000)" fill="#4A4A4A" fill-rule="nonzero">
            <g id="Group-2" transform="translate(445.000000, 277.000000)">
                <g id="noun_173026_cc" transform="translate(400.000000, 69.000000)">
                    <path d="M47.435,26.6608333 L40.9775,2.36916667 L16.6891667,8.82583333 L23.1441667,33.115 L47.435,26.6608333 Z M38.8383333,6.05583333 L43.7483333,24.5225 L25.2825,29.4291667 L20.375,10.9633333 L38.8383333,6.05583333 Z M49.6825,33.4 L48.9083333,30.4883333 L24.91,36.8666667 C23.8091667,34.8291667 21.6541667,33.4408333 19.1808333,33.4408333 C19.1241667,33.4408333 19.0683333,33.4483333 19.0125,33.45 L11.7,5.9375 L1.82916667,0.211666667 L0.3175,2.81833333 L9.10916667,7.9175 L16.0983333,34.22 C14.0616667,35.32 12.6741667,37.4758333 12.6741667,39.9491667 C12.6741667,43.5375 15.5925,46.4558333 19.1816667,46.4558333 C22.7691667,46.4558333 25.6891667,43.5375 25.6891667,39.9491667 C25.6891667,39.8925 25.6816667,39.8375 25.68,39.7808333 L49.6825,33.4 Z M19.1808333,43.4425 C17.2533333,43.4425 15.6866667,41.875 15.6866667,39.9491667 C15.6866667,38.0233333 17.2541667,36.4558333 19.1808333,36.4558333 C21.1066667,36.4558333 22.6733333,38.0233333 22.6733333,39.9491667 C22.6733333,41.875 21.1058333,43.4425 19.1808333,43.4425 Z M28.5816667,20.0925 L29.01,21.7041667 L36.6766667,19.6666667 L36.2483333,18.0566667 L28.5816667,20.0925 Z M26.0925,19.5325 L38.1316667,16.3341667 L37.7033333,14.7225 L25.6641667,17.9225 L26.0925,19.5325 Z M37.4,13.5825 L36.9716667,11.9725 L24.9316667,15.1716667 L25.36,16.7825 L37.4,13.5825 Z" id="Shape"></path>
                </g>
            </g>
        </g>
    </g>
</svg>