<?xml version="1.0" encoding="UTF-8"?>
<svg width="30px" height="30px" viewBox="0 0 30 30" version="1.1" xmlns="http://www.w3.org/2000/svg" xmlns:xlink="http://www.w3.org/1999/xlink">
    <!-- Generator: Sketch 50.2 (55047) - http://www.bohemiancoding.com/sketch -->
    <title>Facebook</title>
    <desc>Created with Sketch.</desc>
    <defs></defs>
    <g id="Symbols" stroke="none" stroke-width="1" fill="none" fill-rule="evenodd">
        <g id="Footer" transform="translate(-442.000000, -15.000000)" fill="#43619C">
            <g id="Icons-Footer">
                <g>
                    <g id="Social-Icons" transform="translate(442.000000, 15.000000)">
                        <path d="M15.0019755,0 C6.71671276,0 0,6.71671276 0,15.0019755 C0,23.2832872 6.71671276,30 15.0019755,30 C23.2832872,30 30,23.2832872 30,15.0019755 C30,6.71671276 23.2832872,0 15.0019755,0 L15.0019755,0 Z M22.2994864,21.3433426 C22.2994864,21.7858554 22.082181,22.0742789 21.6436191,22.0742789 L17.9533781,22.0742789 L17.9533781,16.5428684 L19.8301067,16.5428684 L20.1145792,14.1722639 L17.9533781,14.1722639 L17.9533781,12.9395496 C17.9533781,12.3073884 18.1232714,11.8016594 19.0320032,11.8016594 L20.3239826,11.8016594 L20.3239826,9.91702884 C19.9288819,9.88937179 19.3164757,9.83010668 18.5144212,9.83010668 C16.847096,9.83010668 15.5827736,10.8494666 15.5827736,12.7222442 L15.5827736,14.1722639 L13.6072699,14.1722639 L13.6072699,16.5428684 L15.5827736,16.5428684 L15.5827736,22.0742789 L8.73962861,22.0742789 C8.29711576,22.0742789 8.07585934,21.7858554 8.07585934,21.3433426 L8.07585934,8.43935203 C8.07585934,7.99683919 8.29711576,7.45555117 8.73962861,7.45555117 L21.6436191,7.45555117 C22.082181,7.45555117 22.2994864,7.99683919 22.2994864,8.43935203 L22.2994864,21.3433426 L22.2994864,21.3433426 Z" id="Facebook"></path>
                    </g>
                </g>
            </g>
        </g>
    </g>
</svg>