<?xml version="1.0" encoding="UTF-8"?>
<svg width="27px" height="25px" viewBox="0 0 27 25" version="1.1" xmlns="http://www.w3.org/2000/svg" xmlns:xlink="http://www.w3.org/1999/xlink">
    <!-- Generator: Sketch 50.2 (55047) - http://www.bohemiancoding.com/sketch -->
    <title>Cart</title>
    <desc>Created with Sketch.</desc>
    <defs></defs>
    <g id="Symbols" stroke="none" stroke-width="1" fill="none" fill-rule="evenodd">
        <g id="Tablet-Navigation-1" transform="translate(-701.000000, -26.000000)" fill="#5886F4" fill-rule="nonzero">
            <g id="Tablet-Navigation">
                <g id="Cart" transform="translate(701.000000, 26.000000)">
                    <g id="Group">
                        <path d="M26.7573034,6.61585366 C26.5449438,6.34146341 26.211236,6.18902439 25.8168539,6.18902439 L1.48651685,6.18902439 C1.12247191,6.18902439 0.788764045,6.34146341 0.546067416,6.61585366 C0.333707865,6.8902439 0.242696629,7.25609756 0.333707865,7.65243902 L4.03483146,22.804878 C4.33820225,23.9939024 5.55168539,24.9085366 6.76516854,24.9085366 L20.5078652,24.9085366 C21.7213483,24.9085366 22.9348315,23.9939024 23.2382022,22.7743902 L26.9393258,7.62195122 C27.0606742,7.28658537 26.9696629,6.8902439 26.7573034,6.61585366 Z M26.7573034,6.61585366 C26.5449438,6.34146341 26.211236,6.18902439 25.8168539,6.18902439 L1.48651685,6.18902439 C1.12247191,6.18902439 0.788764045,6.34146341 0.546067416,6.61585366 C0.333707865,6.8902439 0.242696629,7.25609756 0.333707865,7.65243902 L4.03483146,22.804878 C4.33820225,23.9939024 5.55168539,24.9085366 6.76516854,24.9085366 L20.5078652,24.9085366 C21.7213483,24.9085366 22.9348315,23.9939024 23.2382022,22.7743902 L26.9393258,7.62195122 C27.0606742,7.28658537 26.9696629,6.8902439 26.7573034,6.61585366 Z M25.088764,8.96341463 L21.7820225,22.4085366 C21.6303371,22.9268293 21.0539326,23.3841463 20.5078652,23.3841463 L6.76516854,23.3841463 C6.21910112,23.3841463 5.64269663,22.9268293 5.52134831,22.4085366 L2.21460674,8.96341463 C2.06292135,8.32317073 2.54831461,7.71341463 3.18539326,7.71341463 L24.0573034,7.71341463 C24.7550562,7.71341463 25.2404494,8.32317073 25.088764,8.96341463 Z" id="Shape"></path>
                        <path d="M10.2235955,3.29268293 C10.2235955,2.65243902 10.6483146,2.10365854 11.1337079,2.10365854 L16.1696629,2.10365854 C16.6550562,2.10365854 17.0797753,2.65243902 17.0797753,3.29268293 L17.0797753,5.06097561 L18.9,5.06097561 L18.9,3.29268293 C18.9,1.61585366 17.6865169,0.274390244 16.1696629,0.274390244 L11.1337079,0.274390244 C9.61685393,0.274390244 8.40337079,1.61585366 8.40337079,3.29268293 L8.40337079,5.06097561 L10.2235955,5.06097561 L10.2235955,3.29268293 Z" id="Shape"></path>
                    </g>
                </g>
            </g>
        </g>
    </g>
</svg>