<?xml version="1.0" encoding="UTF-8"?>
<svg width="30px" height="30px" viewBox="0 0 30 30" version="1.1" xmlns="http://www.w3.org/2000/svg" xmlns:xlink="http://www.w3.org/1999/xlink">
    <!-- Generator: Sketch 50.2 (55047) - http://www.bohemiancoding.com/sketch -->
    <title>Google+</title>
    <desc>Created with Sketch.</desc>
    <defs></defs>
    <g id="Symbols" stroke="none" stroke-width="1" fill="none" fill-rule="evenodd">
        <g id="Footer" transform="translate(-497.000000, -15.000000)" fill="#F24033">
            <g id="Icons-Footer">
                <g>
                    <g id="Social-Icons" transform="translate(442.000000, 15.000000)">
                        <path d="M70.0019755,0 C61.7167128,0 55,6.71671276 55,15.0019755 C55,23.2832872 61.7167128,30 70.0019755,30 C78.2832872,30 85,23.2832872 85,15.0019755 C85,6.71671276 78.2832872,0 70.0019755,0 L70.0019755,0 Z M67.090083,20.1935994 C64.2927697,20.1935994 62.0248913,17.898064 62.0248913,15.0967997 C62.0248913,12.2955354 64.2927697,10.007902 67.090083,10.007902 C68.4018175,10.007902 69.5989727,10.505729 70.4958514,11.3235875 C69.4369814,12.3271434 69.4725405,12.3824575 69.0537337,12.8012643 C68.5361517,12.3666535 67.9672066,12.0545239 67.090083,12.0545239 C65.4267088,12.0545239 64.1307783,13.4057685 64.1307783,15.0691426 C64.1307783,16.7325168 65.4267088,18.1232714 67.090083,18.1232714 C68.7297511,18.1232714 69.3974714,17.3330699 69.8281312,16.1477677 L67.1493481,16.1477677 L67.1493481,14.1722639 L71.9537732,14.1722639 C72.2896089,16.5428684 71.2702489,20.1935994 67.090083,20.1935994 L67.090083,20.1935994 Z M77.8170684,15.3575662 L76.2366653,15.3575662 L76.2366653,17.3330699 L75.0513631,17.3330699 L75.0513631,15.3575662 L73.0758593,15.3575662 L73.0758593,14.1722639 L75.0513631,14.1722639 L75.0513631,12.5918609 L76.2366653,12.5918609 L76.2366653,14.1722639 L77.8170684,14.1722639 L77.8170684,15.3575662 L77.8170684,15.3575662 Z" id="Google+"></path>
                    </g>
                </g>
            </g>
        </g>
    </g>
</svg>