<?xml version="1.0" encoding="UTF-8"?>
<svg width="30px" height="30px" viewBox="0 0 30 30" version="1.1" xmlns="http://www.w3.org/2000/svg" xmlns:xlink="http://www.w3.org/1999/xlink">
    <!-- Generator: Sketch 50.2 (55047) - http://www.bohemiancoding.com/sketch -->
    <title>Group 3</title>
    <desc>Created with Sketch.</desc>
    <defs></defs>
    <g id="Symbols" stroke="none" stroke-width="1" fill="none" fill-rule="evenodd">
        <g id="Footer" transform="translate(-607.000000, -15.000000)">
            <g id="Icons-Footer">
                <g>
                    <g id="Social-Icons" transform="translate(442.000000, 15.000000)">
                        <g id="Group-3" transform="translate(165.000000, 0.000000)">
                            <g id="Group-2">
                                <path d="M29.8020779,14.8422078 C29.8020779,23.0115584 23.1798701,29.6341558 15.0105195,29.6341558 C6.84116883,29.6341558 0.218571429,23.0115584 0.218571429,14.8422078 C0.218571429,6.67285714 6.84116883,0.0502597403 15.0105195,0.0502597403 C23.1798701,0.0502597403 29.8020779,6.67285714 29.8020779,14.8422078" id="Instagram-Circle" fill="#2A5B83"></path>
                                <path d="M20.827013,7.66168831 L9.93857143,7.66168831 C9.00077922,7.66168831 8.24064935,8.41987013 8.24064935,9.35571429 L8.24064935,20.2519481 C8.24064935,21.1874026 9.00077922,21.945974 9.93857143,21.945974 L20.827013,21.945974 C21.7648052,21.945974 22.5249351,21.1874026 22.5249351,20.2519481 L22.5249351,9.35571429 C22.5249351,8.41987013 21.7648052,7.66168831 20.827013,7.66168831 L20.827013,7.66168831 Z M18.5076623,9.89337662 C18.5076623,9.64714286 18.7075325,9.44688312 18.9537662,9.44688312 L20.2928571,9.44688312 C20.5394805,9.44688312 20.7393506,9.64714286 20.7393506,9.89337662 L20.7393506,11.2324675 C20.7393506,11.4790909 20.5394805,11.678961 20.2928571,11.678961 L18.9537662,11.678961 C18.7075325,11.678961 18.5076623,11.4790909 18.5076623,11.2324675 L18.5076623,9.89337662 L18.5076623,9.89337662 Z M15.3993506,12.0798701 C16.9164935,12.0798701 18.1464935,13.3071429 18.1464935,14.8203896 C18.1464935,16.334026 16.9164935,17.5609091 15.3993506,17.5609091 C13.8825974,17.5609091 12.6525974,16.334026 12.6525974,14.8203896 C12.6525974,13.3071429 13.8825974,12.0798701 15.3993506,12.0798701 L15.3993506,12.0798701 Z M21.1858442,20.1603896 C21.1858442,20.4066234 20.985974,20.6068831 20.7393506,20.6068831 L10.0262338,20.6068831 C9.77961039,20.6068831 9.57974026,20.4066234 9.57974026,20.1603896 L9.57974026,13.4645455 L11.3653247,13.4645455 C11.1327273,13.7992208 11.054026,14.4237662 11.054026,14.8203896 C11.054026,17.2106494 13.0036364,19.1555844 15.3993506,19.1555844 C17.7954545,19.1555844 19.7450649,17.2106494 19.7450649,14.8203896 C19.7450649,14.4237662 19.6885714,13.8085714 19.4002597,13.4645455 L21.1858442,13.4645455 L21.1858442,20.1603896 L21.1858442,20.1603896 Z" id="Instagram" fill="#FFFFFF"></path>
                            </g>
                        </g>
                    </g>
                </g>
            </g>
        </g>
    </g>
</svg>