<?xml version="1.0" encoding="UTF-8"?>
<svg width="42px" height="25px" viewBox="0 0 42 25" version="1.1" xmlns="http://www.w3.org/2000/svg" xmlns:xlink="http://www.w3.org/1999/xlink">
    <!-- Generator: Sketch 50.2 (55047) - http://www.bohemiancoding.com/sketch -->
    <title>Klarna-dark</title>
    <desc>Created with Sketch.</desc>
    <defs></defs>
    <g id="Symbols" stroke="none" stroke-width="1" fill="none" fill-rule="evenodd">
        <g id="Footer" transform="translate(-688.000000, -18.000000)">
            <g id="Icons-Footer">
                <g>
                    <g id="Payment-Methods-Icons" transform="translate(688.000000, 18.000000)">
                        <g id="Klarna-dark">
                            <rect id="Rectangle" fill="#0074C8" x="0" y="0" width="41.6666667" height="25" rx="4"></rect>
                            <path d="M28.8362,12.6141316 C28.8474,13.6459173 28.8404667,14.6766316 28.8404667,15.7062745 C28.8404667,15.9478816 28.8122,15.975203 28.5663333,15.975203 C28.2820667,15.9768102 27.9967333,15.9768102 27.7119333,15.975203 C27.4895333,15.975203 27.4644667,15.9510959 27.4644667,15.7330602 C27.4644667,14.7323459 27.4676667,13.7321673 27.4612667,12.7309173 C27.4612667,12.5637745 27.4383333,12.3960959 27.4079333,12.2310959 C27.3647333,11.992703 27.2036667,11.8571673 26.9738,11.8191316 C26.5562,11.7494888 26.1807333,11.8823459 25.8308667,12.0987745 C25.7844667,12.127703 25.7663333,12.2321673 25.7663333,12.3018102 C25.7615333,13.143953 25.7631333,13.9860959 25.7631333,14.8282388 C25.7631333,15.1453816 25.7594,15.461453 25.7647333,15.7775245 C25.7674,15.922703 25.7039333,15.9784173 25.5631333,15.9768102 C25.2479333,15.9709173 24.9327333,15.975203 24.6175333,15.9741316 C24.4351333,15.9730602 24.385,15.9216316 24.385,15.7346673 C24.3844667,14.1419888 24.3844667,12.5498459 24.385,10.9571673 C24.385,10.7894888 24.4351333,10.7369888 24.6026,10.7359173 C24.8868667,10.7332388 25.1706,10.7337745 25.457,10.7353816 C25.6372667,10.736453 25.6682,10.770203 25.6724667,10.950203 C25.6735333,11.0193102 25.6799333,11.0873459 25.6842,11.1971673 C25.7775333,11.137703 25.8319333,11.1044888 25.8863333,11.0680602 C26.4415333,10.6898459 27.0580667,10.597703 27.705,10.7128816 C28.2975333,10.8168102 28.6202,11.2148459 28.7402,11.7800245 C28.8004667,12.0537745 28.833,12.3355602 28.8362,12.6141316 L28.8362,12.6141316 Z" id="Path" fill="#FFFFFF"></path>
                            <path d="M20.1151333,12.2659173 C20.1455333,13.432703 20.1396667,14.6016316 20.1466,15.7700245 C20.1471333,15.9259173 20.0906,15.9768102 19.9311333,15.9778816 C19.6564667,15.978953 19.3823333,15.9784173 19.1082,15.9778816 C18.8756667,15.9778816 18.8468667,15.948953 18.8351333,15.7185959 C18.8340667,15.6934173 18.8292667,15.6687745 18.8228667,15.6200245 C18.6666,15.7073459 18.5338,15.7909173 18.3940667,15.858953 C17.9060667,16.0962745 17.3978,16.1182388 16.8847333,15.9666316 C16.4228667,15.8284173 16.1402,15.5091316 16.0271333,15.0403816 C15.9455333,14.7018102 15.9386,14.3616316 16.0063333,14.0246673 C16.1119333,13.5028816 16.4623333,13.2130602 16.9498,13.0662745 C17.4218,12.922703 17.9076667,12.9066316 18.3951333,12.911453 C18.7439333,12.9157388 18.7444667,12.9125245 18.7434,12.5573459 C18.7434,12.4657388 18.7498,12.371453 18.7332667,12.2825245 C18.681,11.996453 18.4900667,11.8180602 18.1754,11.8180602 C17.6484667,11.8180602 17.121,11.8405602 16.5946,11.8705602 C16.3364667,11.8860959 16.3023333,11.8732388 16.3023333,11.6112745 C16.3023333,11.4275245 16.3055333,11.2432388 16.3012667,11.0605602 C16.2991333,10.9582388 16.3391333,10.8880602 16.4362,10.867703 C17.2538,10.6925245 18.0756667,10.571453 18.905,10.7782388 C19.6527333,10.9630602 20.0948667,11.4853816 20.1151333,12.2659173 Z M18.7759333,14.6348459 C18.7636667,14.5132388 18.7732667,14.3900245 18.7732667,14.2668102 C18.7732667,14.1087745 18.7791333,13.950203 18.769,13.792703 C18.7663333,13.7530602 18.7124667,13.683953 18.6842,13.6850245 C18.3663333,13.6962745 18.0468667,13.7048459 17.7311333,13.743953 C17.5375333,13.7685959 17.3956667,13.9105602 17.3567333,14.1044888 C17.3204667,14.2860959 17.3098,14.4778816 17.3247333,14.6637745 C17.3418,14.8673459 17.4879333,14.9862745 17.6874,15.0205602 C18.0079333,15.0762745 18.3098,15.0135959 18.6084667,14.8973459 C18.737,14.8480602 18.7919333,14.7762745 18.7759333,14.6348459 Z" id="Path" fill="#FFFFFF"></path>
                            <path d="M33.6900667,12.5546673 C33.6927333,13.616453 33.6916667,14.6787745 33.6911333,15.7405602 C33.6911333,15.9510959 33.665,15.975203 33.4522,15.975203 C33.1876667,15.9768102 32.9242,15.9768102 32.6596667,15.975203 C32.4324667,15.975203 32.4180667,15.9618102 32.4063333,15.7394888 C32.4052667,15.7132388 32.4026,15.6880602 32.3972667,15.6623459 C32.3962,15.652703 32.3866,15.6468102 32.3711333,15.6232388 C32.3380667,15.6382388 32.3076667,15.6478816 32.2836667,15.6650245 C31.9295333,15.930203 31.5220667,16.0335959 31.0895333,16.0673459 C30.2335333,16.1369888 29.5791333,15.5712745 29.5386,14.7098459 C29.5284667,14.497703 29.5231333,14.2812745 29.5546,14.0728816 C29.6324667,13.5703816 29.9407333,13.2366316 30.4159333,13.1021673 C30.7743333,13.001453 31.1503333,12.9585959 31.521,12.9146673 C31.7364667,12.8884173 31.9578,12.9071673 32.1764667,12.9103816 C32.2724667,12.9135959 32.3199333,12.8803816 32.3146,12.7796673 C32.3066,12.6280602 32.3204667,12.4721673 32.2948667,12.3221673 C32.2378,11.9873459 32.049,11.8132388 31.7119333,11.8143102 C31.1898,11.8175245 30.6676667,11.8410959 30.145,11.8705602 C29.8826,11.8844888 29.8452667,11.8635959 29.8452667,11.5925245 C29.8452667,11.4243102 29.8458,11.2555602 29.8452667,11.0873459 C29.8447333,10.9566316 29.9007333,10.8837745 30.0340667,10.852703 C30.6415333,10.7150245 31.2548667,10.6405602 31.8756667,10.6796673 C32.1354,10.6962745 32.3994,10.7535959 32.6468667,10.8366316 C33.2372667,11.0343102 33.5631333,11.4703816 33.6580667,12.0810959 C33.6820667,12.2385959 33.6895333,12.397703 33.6900667,12.5546673 Z M32.3466,14.6835959 C32.3402,14.5448459 32.3455333,14.407703 32.3444667,14.2705602 C32.3444667,14.1237745 32.3418,13.9748459 32.3466,13.8269888 C32.3487333,13.7262745 32.3140667,13.6753816 32.2058,13.680203 C32.0132667,13.6844888 31.8186,13.668953 31.6271333,13.683953 C30.9855333,13.732703 30.8692667,13.9721673 30.8612667,14.5019888 C30.857,14.8137745 31.0015333,14.9819888 31.2484667,15.0243102 C31.5914,15.0805602 31.9119333,15.0093102 32.2239333,14.8705602 C32.3087333,14.8325245 32.3503333,14.7810959 32.3466,14.6835959 Z" id="Path" fill="#FFFFFF"></path>
                            <path d="M15.0154,8.92788161 L14.1311333,8.92788161 C13.9098,8.92841733 13.889,8.95038161 13.889,9.17538161 L13.889,12.4368102 L13.889,15.7598459 C13.889,15.9435959 13.9204667,15.9741316 14.1007333,15.975203 C14.3898,15.9768102 14.6794,15.975203 14.9695333,15.975203 C15.2420667,15.975203 15.2671333,15.9510959 15.2671333,15.6810959 L15.2671333,10.0919888 C15.2671333,9.78556018 15.2676667,9.47966733 15.2671333,9.17323876 C15.2666,8.9648459 15.2282,8.92841733 15.0154,8.92788161 L15.0154,8.92788161 Z" id="Path" fill="#FFFFFF"></path>
                            <path d="M23.6154,10.6732388 C23.2186,10.6903816 22.8602,10.8157388 22.5391333,11.0487745 C22.4954,11.0809173 22.4516667,11.1103816 22.3860667,11.1575245 C22.3807333,11.0841316 22.3748667,11.0407388 22.3748667,10.9968102 C22.3706,10.7771673 22.3322,10.736453 22.1183333,10.736453 C21.8426,10.7353816 21.5695333,10.7359173 21.2948667,10.7359173 C21.0436667,10.736453 21.0020667,10.7771673 21.0020667,11.0284173 L21.0020667,13.1412745 C21.0020667,13.995203 21.0015333,14.8475245 21.0020667,15.6987745 C21.0020667,15.9248459 21.0516667,15.975203 21.2655333,15.975203 C21.5546,15.9768102 21.8452667,15.9768102 22.1348667,15.975203 C22.3684667,15.975203 22.4058,15.9398459 22.4058,15.697703 C22.4063333,14.5657388 22.4074,13.4321673 22.4036667,12.2975245 C22.4036667,12.1855602 22.4362,12.1218102 22.5386,12.0730602 C22.8778,11.9128816 23.2255333,11.7928816 23.6068667,11.8084173 C23.7466,11.8143102 23.8143333,11.7612745 23.8111333,11.6128816 C23.8052667,11.3621673 23.8063333,11.1130602 23.8106,10.8628816 C23.8111333,10.7262745 23.7503333,10.6678816 23.6154,10.6732388 L23.6154,10.6732388 Z" id="Path" fill="#FFFFFF"></path>
                            <path d="M9.22233333,8.92841733 C8.953,8.92681018 8.68366667,8.92573876 8.4138,8.92895304 C8.13113333,8.93323876 7.97486667,9.09502447 7.97486667,9.38002447 L7.97486667,12.5353816 L7.97486667,15.7368102 C7.97486667,15.9237745 7.99993333,15.948953 8.1866,15.948953 C8.46073333,15.9510959 8.7354,15.9510959 9.00953333,15.948953 C9.29753333,15.9468102 9.44206667,15.802703 9.44206667,15.5150245 L9.44206667,9.15823876 C9.4426,8.9723459 9.40366667,8.93002447 9.22233333,8.92841733 L9.22233333,8.92841733 Z" id="Path" fill="#FFFFFF"></path>
                            <path d="M12.2516667,13.7337745 C11.6628667,13.1155602 10.9386,12.7753816 10.1487333,12.6966316 C9.8938,12.6918102 9.89166667,12.6918102 9.8986,12.885203 C9.90126667,12.956453 9.91513333,13.0266316 9.9258,13.0973459 C10.0671333,14.0375245 10.5247333,14.786453 11.2863333,15.3462745 C11.7855333,15.7148459 12.3503333,15.9060959 12.9652667,15.963953 C13.1482,15.9816316 13.1791333,15.9687745 13.161,15.7887745 C13.0826,15.0044888 12.7983333,14.3085959 12.2516667,13.7337745 L12.2516667,13.7337745 Z" id="Path" fill="#FFFFFF"></path>
                            <path d="M12.9695333,8.94556018 C12.8996667,8.95681018 12.8271333,8.95252447 12.7578,8.96323876 C11.9567333,9.09127447 11.2767333,9.44752447 10.7359333,10.057703 C10.2404667,10.6159173 9.96526667,11.2743102 9.9002,12.0178816 C9.88366667,12.2118102 9.89433333,12.2123459 10.0975333,12.2385959 C10.3764667,12.1694888 10.6666,12.1271673 10.9332667,12.0253816 C12.265,11.5175245 12.9935333,10.5318102 13.1615333,9.11752447 C13.1828667,8.93806018 13.153,8.91770304 12.9695333,8.94556018 L12.9695333,8.94556018 Z" id="Path" fill="#FFFFFF"></path>
                        </g>
                    </g>
                </g>
            </g>
        </g>
    </g>
</svg>