<?xml version="1.0" encoding="UTF-8"?>
<svg width="50px" height="54px" viewBox="0 0 50 54" version="1.1" xmlns="http://www.w3.org/2000/svg" xmlns:xlink="http://www.w3.org/1999/xlink">
    <!-- Generator: Sketch 51.1 (57501) - http://www.bohemiancoding.com/sketch -->
    <title>Group</title>
    <desc>Created with Sketch.</desc>
    <defs></defs>
    <g id="14---Hilfe" stroke="none" stroke-width="1" fill="none" fill-rule="evenodd">
        <g id="Desktop-HD-Copy-10" transform="translate(-546.000000, -337.000000)" fill="#4A4A4A" fill-rule="nonzero">
            <g id="Group-2" transform="translate(445.000000, 277.000000)">
                <g id="noun_848953_cc" transform="translate(101.000000, 60.000000)">
                    <g id="Group">
                        <path d="M24.9454948,0.211854651 C24.7204366,0.219412791 24.5140762,0.263017442 24.3459308,0.320866279 L1.09011628,9.62319186 C0.445029128,9.88418023 -0.00722668605,10.5625523 5.81395353e-08,11.2583663 L5.81395353e-08,42.6537209 C5.87209302e-06,43.3435465 0.450680291,44.0120349 1.09011628,44.2706977 L24.3459308,53.5730233 C24.7602913,53.7406395 25.2397099,53.7406395 25.6540703,53.5730233 L48.9098843,44.2706977 C49.5493203,44.0120349 49.9999948,43.3435465 50.0000006,42.6537209 L50.0000006,11.2583663 C50.0072099,10.5625523 49.5549715,9.88418023 48.9098843,9.62319186 L25.6540703,0.320866279 C25.4142971,0.233831395 25.1705529,0.204587209 24.9454948,0.211854651 Z M24.9999715,3.82743605 L43.5319483,11.2402267 L36.6279076,14.0199942 L18.0777622,6.58906395 L25.0000006,3.82743605 L24.9999715,3.82743605 Z M13.3720645,8.47859884 L31.9040413,15.8913895 L24.9999715,18.671157 L6.46799477,11.2402267 L13.3720645,8.47859884 Z M3.48834302,13.8383081 L23.2557855,21.7416105 L23.2557855,49.3761047 L3.48834302,41.454593 L3.48834302,13.8383081 Z M46.5115994,13.8383081 L46.5115994,41.454593 L26.7441576,49.3761047 L26.7441576,21.7416105 L34.8836924,18.4894709 L34.8836924,25.211843 C34.8747966,25.8408592 35.2052773,26.4259384 35.7485869,26.7430425 C36.2918966,27.0601466 36.9638603,27.0601466 37.50717,26.7430425 C38.0504797,26.4259384 38.3809604,25.8408592 38.3720645,25.211843 L38.3720645,17.0904593 L46.5115994,13.8383081 Z" id="Shape"></path>
                    </g>
                </g>
            </g>
        </g>
    </g>
</svg>