<?xml version="1.0" encoding="UTF-8"?>
<svg width="50px" height="46px" viewBox="0 0 50 46" version="1.1" xmlns="http://www.w3.org/2000/svg" xmlns:xlink="http://www.w3.org/1999/xlink">
    <!-- Generator: Sketch 51.1 (57501) - http://www.bohemiancoding.com/sketch -->
    <title>noun_942014_cc</title>
    <desc>Created with Sketch.</desc>
    <defs></defs>
    <g id="14---Hilfe" stroke="none" stroke-width="1" fill="none" fill-rule="evenodd">
        <g id="Desktop-HD-Copy-10" transform="translate(-846.000000, -658.000000)" fill="#4A4A4A">
            <g id="Group-2" transform="translate(445.000000, 277.000000)">
                <g id="noun_942014_cc" transform="translate(401.000000, 381.000000)">
                    <path d="M2.71270341,13.5720032 L39.1631907,5.30545268 L38.6580771,3.07741696 C38.5177362,2.44322865 37.8780446,2.04479521 37.2494732,2.18507119 L3.08867744,9.87927597 C2.45450536,10.0196006 2.05604757,10.653789 2.19630731,11.2879286 C2.37025211,12.045526 2.53867744,12.8144058 2.71270341,13.5720032 Z M2.40961899,7.85893482 L37.0025576,0.0749575848 C38.6524765,-0.295407678 40.2967946,0.742782257 40.6672492,2.39276599 L44.292655,18.4152744 L42.1264213,18.4152744 L40.4820219,11.1588539 L4.03145341,19.4254448 L6.28754107,29.375664 L6.48957029,30.2568084 C6.56814172,30.6103961 6.92171315,30.8404367 7.28088523,30.7562484 L7.55020341,30.6945438 L7.55020341,32.8159075 L7.51091769,32.8276201 C6.14159951,33.1362808 4.77788198,32.2664269 4.46359627,30.9027094 L0.0805605131,11.5297386 C-0.104666761,10.7047224 0.0300735002,9.93030682 0.479018304,9.21197078 C0.92796315,8.49359416 1.58461899,8.04460852 2.40953782,7.8594056 L2.40961899,7.85893482 Z M11.3889213,18.9932857 C9.69971672,18.9932857 8.32471672,20.3739188 8.32471672,22.063164 L8.32471672,41.9973279 C8.32471672,43.6865244 9.69971672,45.0615325 11.3889213,45.0615325 L46.8574278,45.0615325 C48.5466323,45.0615325 49.9271518,43.6809481 49.9271518,41.9973279 L49.9271518,22.063164 C49.9271518,20.3739188 48.5466323,18.9932857 46.8574278,18.9932857 L11.3889213,18.9932857 Z M46.1109992,27.9165568 C46.1109992,26.5640325 46.1109992,25.2115649 46.1109992,23.8589919 C46.1109992,23.5952175 45.9032881,23.3876201 45.6395706,23.3876201 C42.6146518,23.3876201 39.589733,23.3876201 36.5648141,23.3876201 C36.3066161,23.3876201 36.0933856,23.6008425 36.0933856,23.8589919 C36.0933856,25.2115649 36.0933856,26.5640325 36.0933856,27.9165568 C36.0933856,28.1747549 36.3066161,28.3879773 36.5648141,28.3879773 C39.589733,28.3879773 42.6146518,28.3879773 45.6395706,28.3879773 C45.8920869,28.3879773 46.1109992,28.1803312 46.1109992,27.9165568 Z M39.4213888,40.2182695 C39.1575901,40.2182695 38.9442784,40.0049984 38.9442784,39.7468409 L38.9442784,38.8040406 C38.9442784,38.5458425 39.1575901,38.3325714 39.4213888,38.3325714 L45.6338888,38.3325714 C45.8920869,38.3325714 46.1053174,38.5458425 46.1053174,38.8040406 L46.1053174,39.7468409 C46.1053174,40.0049984 45.8920869,40.2182695 45.6338888,40.2182695 L39.4213888,40.2182695 Z M30.7506907,40.2182695 C30.4924927,40.2182695 30.2792622,40.0049984 30.2792622,39.7468409 L30.2792622,38.8096169 C30.2792622,38.5458425 30.4924927,38.3382451 30.7506907,38.3382451 L36.9688726,38.3382451 C37.2269894,38.3382451 37.4403011,38.5514675 37.4403011,38.8096169 L37.4403011,39.7468409 C37.4403011,40.0049984 37.2269894,40.2182695 36.9688726,40.2182695 L30.7506907,40.2182695 Z M22.0855122,40.2182695 C21.8273953,40.2182695 21.6141648,40.0049984 21.6141648,39.7468409 L21.6141648,38.8096169 C21.6141648,38.5458425 21.8273953,38.3382451 22.0855122,38.3382451 L28.3038563,38.3382451 C28.561892,38.3382451 28.7752037,38.5514675 28.7752037,38.8096169 L28.7752037,39.7468409 C28.7752037,40.0049984 28.561892,40.2182695 28.3038563,40.2182695 L22.0855122,40.2182695 Z M13.4204959,40.2182695 C13.1623791,40.2182695 12.9490674,40.0049984 12.9490674,39.7468409 L12.9490674,38.8096169 C12.9490674,38.5458425 13.1623791,38.3382451 13.4204959,38.3382451 L19.6387589,38.3382451 C19.8968758,38.3382451 20.1101063,38.5514675 20.1101063,38.8096169 L20.1101063,39.7468409 C20.1101063,40.0049984 19.8968758,40.2182695 19.6387589,40.2182695 L13.4204959,40.2182695 Z" id="Shape"></path>
                </g>
            </g>
        </g>
    </g>
</svg>