<?xml version="1.0" encoding="UTF-8"?>
<svg width="42px" height="25px" viewBox="0 0 42 25" version="1.1" xmlns="http://www.w3.org/2000/svg" xmlns:xlink="http://www.w3.org/1999/xlink">
    <!-- Generator: Sketch 50.2 (55047) - http://www.bohemiancoding.com/sketch -->
    <title>Paypal-light</title>
    <desc>Created with Sketch.</desc>
    <defs></defs>
    <g id="Symbols" stroke="none" stroke-width="1" fill="none" fill-rule="evenodd">
        <g id="Footer" transform="translate(-755.000000, -18.000000)">
            <g id="Icons-Footer">
                <g>
                    <g id="Payment-Methods-Icons" transform="translate(688.000000, 18.000000)">
                        <g id="Paypal-light" transform="translate(87.696721, 12.500000) scale(1, -1) translate(-87.696721, -12.500000) translate(67.000000, 0.000000)">
                            <rect id="Rectangle" fill="#FFFFFF" x="0.0768442623" y="0.0626408204" width="40.9836066" height="24.5901639" rx="4"></rect>
                            <path d="M25.2177304,13.8321214 C25.1076285,13.1091884 24.5555612,13.1091884 24.0214113,13.1091884 L23.7175925,13.1091884 L23.930785,14.4589749 C23.9435091,14.5405126 24.0138808,14.6004974 24.0964572,14.6004974 L24.2359022,14.6004974 C24.5994461,14.6004974 24.9427354,14.6004974 25.1198332,14.393537 C25.2257803,14.2696724 25.2577202,14.0858231 25.2177304,13.8321214 M24.985322,15.7183948 L22.9712888,15.7183948 C22.8334018,15.7183948 22.7162888,15.6181606 22.6947358,15.4820913 L21.8803975,10.3176907 C21.8642977,10.2158984 21.9432386,10.123714 22.0460696,10.123714 L23.079573,10.123714 C23.1759121,10.123714 23.2579691,10.1938261 23.2730303,10.2888668 L23.5041403,11.7531697 C23.5254336,11.889239 23.6428063,11.9894732 23.7804337,11.9894732 L24.4176742,11.9894732 C25.7443497,11.9894732 26.5101289,12.6313879 26.7100781,13.9040512 C26.800185,14.4602733 26.7137135,14.8975647 26.4532603,15.2037206 C26.1668396,15.5402583 25.6591765,15.7183948 24.985322,15.7183948" id="Shape" fill="#0079C1"></path>
                            <path d="M10.8526312,13.8321214 C10.7425293,13.1091884 10.1904619,13.1091884 9.6563121,13.1091884 L9.35249328,13.1091884 L9.5656858,14.4589749 C9.57840984,14.5405126 9.64878155,14.6004974 9.73135795,14.6004974 L9.870803,14.6004974 C10.2343469,14.6004974 10.5776362,14.6004974 10.754734,14.393537 C10.8606811,14.2696724 10.892621,14.0858231 10.8526312,13.8321214 M10.6202228,15.7183948 L8.60618961,15.7183948 C8.46830261,15.7183948 8.35118954,15.6181606 8.32963658,15.4820913 L7.51529827,10.3176907 C7.49919847,10.2158984 7.57787975,10.123714 7.68097041,10.123714 L8.64280367,10.123714 C8.780431,10.123714 8.89754407,10.2239483 8.91909703,10.3597579 L9.13904108,11.7531697 C9.16033437,11.889239 9.27770711,11.9894732 9.41533444,11.9894732 L10.0525749,11.9894732 C11.3792505,11.9894732 12.1450297,12.6313879 12.3449788,13.9040512 C12.4350858,14.4602733 12.3486143,14.8975647 12.088161,15.2037206 C11.8017404,15.5402583 11.2940773,15.7183948 10.6202228,15.7183948" id="Shape" fill="#00457C"></path>
                            <path d="M15.2959944,11.9780995 C15.2027714,11.4270708 14.76548,11.0570351 14.2074402,11.0570351 C13.927771,11.0570351 13.7036722,11.147142 13.5598127,11.3174883 C13.4172515,11.4862765 13.363499,11.7269945 13.4086823,11.9947186 C13.4954135,12.5410732 13.9399757,12.9227943 14.4894463,12.9227943 C14.7634026,12.9227943 14.9856838,12.8319083 15.1323997,12.660004 C15.2801543,12.4868013 15.3383213,12.2447849 15.2959944,11.9780995 M16.6400681,13.8552843 L15.6756381,13.8552843 C15.5930617,13.8552843 15.52269,13.7952996 15.5097063,13.7135022 L15.4673794,13.4439604 L15.4001238,13.5415979 C15.191086,13.8446377 14.7254902,13.9461703 14.2606734,13.9461703 C13.1952301,13.9461703 12.285072,13.1385835 12.1079742,12.0061443 C12.0157898,11.4410932 12.1466656,10.9012306 12.4671036,10.5244433 C12.7613145,10.1782976 13.1812077,10.0341784 13.6815999,10.0341784 C14.5406022,10.0341784 15.0168447,10.5857264 15.0168447,10.5857264 L14.9737387,10.3177426 C14.9576389,10.2159503 15.0363202,10.123766 15.1396706,10.123766 L16.0080211,10.123766 C16.1459081,10.123766 16.2630212,10.2237406 16.2845741,10.3598098 L16.8059999,13.6613077 C16.8220997,13.7631 16.7431588,13.8552843 16.6400681,13.8552843" id="Shape" fill="#00457C"></path>
                            <path d="M29.6611196,11.9780995 C29.5678966,11.4270708 29.1306052,11.0570351 28.5725653,11.0570351 C28.2928962,11.0570351 28.0687974,11.147142 27.9249379,11.3174883 C27.782117,11.4862765 27.7286242,11.7269945 27.7738075,11.9947186 C27.8605387,12.5410732 28.3051009,12.9227943 28.8545715,12.9227943 C29.1285278,12.9227943 29.3508089,12.8319083 29.4975249,12.660004 C29.6452795,12.4868013 29.7034465,12.2447849 29.6611196,11.9780995 M31.0051933,13.8552843 L30.0407633,13.8552843 C29.9581869,13.8552843 29.8878152,13.7952996 29.8748315,13.7135022 L29.8325046,13.4439604 L29.7649893,13.5415979 C29.5562112,13.8446377 29.0906154,13.9461703 28.6257985,13.9461703 C27.5603553,13.9461703 26.6501972,13.1385835 26.4730994,12.0061443 C26.380915,11.4410932 26.5117908,10.9012306 26.8322288,10.5244433 C27.1264397,10.1782976 27.5463329,10.0341784 28.0467251,10.0341784 C28.9057273,10.0341784 29.3819698,10.5857264 29.3819698,10.5857264 L29.3388639,10.3177426 C29.3227641,10.2159503 29.4014454,10.123766 29.5047957,10.123766 L30.3731463,10.123766 C30.5110333,10.123766 30.6281464,10.2237406 30.6496993,10.3598098 L31.1711251,13.6613077 C31.1872249,13.7631 31.108284,13.8552843 31.0051933,13.8552843" id="Shape" fill="#0079C1"></path>
                            <path d="M21.7766057,13.8552584 L20.8072419,13.8552584 C20.7145382,13.8552584 20.627807,13.809296 20.5758722,13.7324325 L19.23855,11.7630633 L18.6719409,13.6555689 C18.6363655,13.7739803 18.5273024,13.8552584 18.4036974,13.8552584 L17.4509528,13.8552584 C17.3359171,13.8552584 17.2548987,13.7420404 17.2920322,13.6332369 L18.3592931,10.5000079 L17.3553927,9.08348514 C17.2767114,8.97234458 17.3561717,8.81861745 17.4925006,8.81861745 L18.4608258,8.81861745 C18.5524908,8.81861745 18.6384429,8.86354109 18.6908971,8.93884661 L21.9144927,13.591689 C21.9916159,13.7030893 21.9121556,13.8552584 21.7766057,13.8552584" id="Shape" fill="#00457C"></path>
                            <path d="M32.1418912,15.5764829 L31.3153482,10.3175608 C31.2992484,10.2157686 31.3779297,10.1235842 31.4810203,10.1235842 L32.3124971,10.1235842 C32.4501245,10.1235842 32.5674972,10.2238185 32.5887905,10.3598877 L33.4039078,15.5242884 C33.4200076,15.6260807 33.3413263,15.718265 33.237976,15.718265 L32.307823,15.718265 C32.2249869,15.718265 32.1546152,15.6582803 32.1418912,15.5764829" id="Shape" fill="#0079C1"></path>
                        </g>
                    </g>
                </g>
            </g>
        </g>
    </g>
</svg>