<?xml version="1.0" encoding="UTF-8"?>
<svg width="75px" height="75px" viewBox="0 0 75 75" version="1.1" xmlns="http://www.w3.org/2000/svg" xmlns:xlink="http://www.w3.org/1999/xlink">
    <!-- Generator: Sketch 50.2 (55047) - http://www.bohemiancoding.com/sketch -->
    <title>noun_156779_cc</title>
    <desc>Created with Sketch.</desc>
    <defs></defs>
    <g id="2---Übersicht---Kategorie" stroke="none" stroke-width="1" fill="none" fill-rule="evenodd">
        <g id="Toddlers-Desktop" transform="translate(-50.000000, -21.000000)" fill="#5886F4" fill-rule="nonzero">
            <g id="noun_156779_cc" transform="translate(50.000000, 21.000000)">
                <path d="M37.5,75 C16.7892857,75 0,58.2107143 0,37.5 C0,16.7892857 16.7892857,0 37.5,0 C58.2107143,0 75,16.7892857 75,37.5 C75,58.2107143 58.2107143,75 37.5,75 Z M54.6428571,34.2857143 C54.6428571,31.9189286 52.7239286,30 50.3571429,30 L40.6971429,30 L40.6971429,20.8928571 C39.6407143,16.5042857 34.7453571,18.8057143 34.7378571,18.7896429 L18.3492857,35.5275 C16.7035714,37.2075 16.7035714,39.9332143 18.3492857,41.6142857 L34.7378571,58.3510714 C34.7067857,58.2578571 39.6396429,60.6696429 40.6971429,56.2478571 L40.6971429,47.1428571 L50.3571429,47.1428571 C52.7239286,47.1428571 54.6428571,45.2239286 54.6428571,42.8571429 L54.6428571,34.2857143 Z" id="Shape"></path>
            </g>
        </g>
    </g>
</svg>