<?xml version="1.0" encoding="UTF-8"?>
<svg width="50px" height="45px" viewBox="0 0 50 45" version="1.1" xmlns="http://www.w3.org/2000/svg" xmlns:xlink="http://www.w3.org/1999/xlink">
    <!-- Generator: Sketch 51.1 (57501) - http://www.bohemiancoding.com/sketch -->
    <title>noun_570333_cc</title>
    <desc>Created with Sketch.</desc>
    <defs></defs>
    <g id="14---Hilfe" stroke="none" stroke-width="1" fill="none" fill-rule="evenodd">
        <g id="Desktop-HD-Copy-10" transform="translate(-545.000000, -649.000000)" fill="#4A4A4A" fill-rule="nonzero">
            <g id="Group-2" transform="translate(445.000000, 277.000000)">
                <g id="noun_570333_cc" transform="translate(100.000000, 372.000000)">
                    <path d="M45.088,23.332 L43.8353333,23.332 L43.8353333,0.661333333 L0.0566666667,0.661333333 L0.0566666667,44.4393333 L43.8353333,44.4393333 L43.8353333,32.7566667 L45.088,32.7566667 C47.686,32.7566667 49.8,30.642 49.8,28.0446667 C49.8,25.4453333 47.686,23.332 45.088,23.332 Z M19.1686667,3.99466667 L24.7233333,3.99466667 L24.7233333,17.2 L21.946,16.3666667 L19.1686667,17.2 L19.1686667,3.99466667 Z M40.502,41.1053333 L3.39,41.1053333 L3.39,3.99466667 L15.8353333,3.99466667 L15.8353333,21.68 L21.946,19.8466667 L28.0566667,21.68 L28.0566667,3.99466667 L40.502,3.99466667 L40.502,29.4233333 L22.2553333,29.4233333 L24.8326667,26.8453333 L22.476,24.4886667 L15.804,31.16 L22.476,37.8306667 L24.8326667,35.4726667 L22.1146667,32.7566667 L40.502,32.7566667 L40.502,41.1053333 Z M45.088,29.4233333 L43.8353333,29.4233333 L43.8353333,26.6653333 L45.088,26.6653333 C45.8486667,26.6653333 46.4666667,27.284 46.4666667,28.044 C46.4666667,28.804 45.848,29.4233333 45.088,29.4233333 Z" id="Shape"></path>
                </g>
            </g>
        </g>
    </g>
</svg>