<?xml version="1.0" encoding="UTF-8"?>
<svg width="42px" height="25px" viewBox="0 0 42 25" version="1.1" xmlns="http://www.w3.org/2000/svg" xmlns:xlink="http://www.w3.org/1999/xlink">
    <!-- Generator: Sketch 50.2 (55047) - http://www.bohemiancoding.com/sketch -->
    <title>Visa-light</title>
    <desc>Created with Sketch.</desc>
    <defs></defs>
    <g id="Symbols" stroke="none" stroke-width="1" fill="none" fill-rule="evenodd">
        <g id="Footer" transform="translate(-822.000000, -18.000000)">
            <g id="Icons-Footer">
                <g>
                    <g id="Payment-Methods-Icons" transform="translate(688.000000, 18.000000)">
                        <g id="Visa-light" transform="translate(134.000000, 0.000000)">
                            <rect id="Rectangle" fill="#FFFFFF" x="0" y="0" width="41.6666667" height="25" rx="4"></rect>
                            <polyline id="Fill-1" fill="#26337A" points="17.2874962 16.4778169 18.5686367 8.53028169 20.6164939 8.53028169 19.3354704 16.4778169 17.2874962 16.4778169"></polyline>
                            <path d="M26.7636962,8.72535211 C26.3587865,8.56584507 25.7219643,8.39190141 24.9286598,8.39190141 C22.9039939,8.39190141 21.4787865,9.47042254 21.4669566,11.0147887 C21.4540726,12.1571596 22.4839747,12.7942488 23.2604128,13.1739437 C24.0584025,13.5631455 24.3265073,13.8122066 24.3233449,14.1602113 C24.3178399,14.6924883 23.6864055,14.936385 23.0976056,14.936385 C22.2777131,14.936385 21.842116,14.8163146 21.1686329,14.5196009 L20.9052131,14.3930751 L20.6188364,16.1720657 C21.0963652,16.3934272 21.9816148,16.5855634 22.9003629,16.5956573 C25.0521121,16.5956573 26.4502631,15.5301643 26.4666609,13.8809859 C26.4740399,12.9751174 25.9283429,12.2884977 24.7465265,11.7215962 C24.0308775,11.3530516 23.5916494,11.1089202 23.5966859,10.7359155 C23.5971544,10.4056338 23.9677458,10.0519953 24.7698349,10.0519953 C25.439687,10.0411972 25.9245949,10.195892 26.3024482,10.3573944 L26.4863383,10.4482394 L26.7636962,8.72535211" id="Fill-2" fill="#26337A"></path>
                            <path d="M29.4905415,13.6600939 C29.6602592,13.2032864 30.3063345,11.438615 30.3063345,11.438615 C30.2943875,11.4596244 30.4751152,10.9782864 30.5785388,10.6803991 L30.7167492,11.3658451 C30.7167492,11.3658451 31.109712,13.2627934 31.1906471,13.6600939 L29.4905415,13.6600939 L29.4905415,13.6600939 Z M32.0169816,8.53838028 L30.4343548,8.53838028 C29.9434735,8.53838028 29.5760445,8.67899061 29.3609985,9.1971831 L26.319783,16.4806338 L28.4707124,16.4806338 C28.4707124,16.4806338 28.8216263,15.5008216 28.901273,15.2857981 C29.1358794,15.2857981 31.2259025,15.2899061 31.5242262,15.2899061 C31.585601,15.5672535 31.7735906,16.4806338 31.7735906,16.4806338 L33.6743356,16.4806338 L32.0169816,8.53838028 L32.0169816,8.53838028 Z" id="Fill-3" fill="#26337A"></path>
                            <path d="M15.56947,8.53697183 L13.5650672,13.9552817 L13.3503725,12.8538732 C12.9768529,11.5848592 11.8141283,10.2093897 10.5135445,9.52018779 L12.3472926,16.470892 L14.5146198,16.4696009 L17.7396083,8.53697183 L15.56947,8.53697183" id="Fill-4" fill="#26337A"></path>
                            <path d="M11.7043798,8.53157277 L8.40197005,8.53157277 L8.37479647,8.69624413 C10.9444566,9.35457746 12.6446793,10.943662 13.3503725,12.8538732 L12.6327323,9.20211268 C12.5089286,8.69847418 12.1491129,8.5491784 11.7043798,8.53157277" id="Fill-5" fill="#EC982D"></path>
                        </g>
                    </g>
                </g>
            </g>
        </g>
    </g>
</svg>