<?xml version="1.0" encoding="UTF-8"?>
<svg width="30px" height="30px" viewBox="0 0 30 30" version="1.1" xmlns="http://www.w3.org/2000/svg" xmlns:xlink="http://www.w3.org/1999/xlink">
    <!-- Generator: Sketch 50.2 (55047) - http://www.bohemiancoding.com/sketch -->
    <title>Group 3</title>
    <desc>Created with Sketch.</desc>
    <defs></defs>
    <g id="3---Übersicht---Genre" stroke="none" stroke-width="1" fill="none" fill-rule="evenodd">
        <g id="Desktop-HD-Copy-2" transform="translate(-1321.000000, -377.000000)">
            <g id="Group-5" transform="translate(89.000000, 373.000000)">
                <g id="Group-4">
                    <g id="Book" transform="translate(1052.000000, 0.000000)">
                        <g id="Group-3" transform="translate(180.000000, 4.000000)">
                            <circle id="Oval-2" fill="#FEFEFE" cx="15" cy="15" r="15"></circle>
                            <g id="Merkliste" transform="translate(6.000000, 7.000000)" fill="#000000" fill-rule="nonzero">
                                <path d="M12.6204545,0.803571429 C15.0545455,0.803571429 17.0386364,2.75223214 17.0386364,5.14285714 C17.0386364,6.26785714 16.6090909,7.33258929 15.8113636,8.13616071 L15.6886364,8.27678571 L9,14.8459821 L2.35227273,8.31696429 L2.18863636,8.13616071 C1.39090909,7.3125 0.961363636,6.24776786 0.961363636,5.14285714 C0.961363636,2.75223214 2.94545455,0.803571429 5.37954545,0.803571429 C6.525,0.803571429 7.60909091,1.22544643 8.42727273,2.00892857 L8.57045455,2.12946429 L9,2.55133929 L9.02045455,2.53125 L9.40909091,2.14955357 L9.59318182,1.98883929 C10.3909091,1.24553571 11.475,0.803571429 12.6204545,0.803571429 Z M12.6204545,0 C11.2090909,0 9.94090909,0.542410714 9,1.42633929 C8.05909091,0.5625 6.77045455,0 5.37954545,0 C2.475,0 0.143181818,2.31026786 0.143181818,5.14285714 C0.143181818,6.52901786 0.695454545,7.77455357 1.59545455,8.69866071 L9,15.9910714 L16.4045455,8.71875 C17.3045455,7.79464286 17.8568182,6.54910714 17.8568182,5.16294643 C17.8568182,2.31026786 15.525,0 12.6204545,0 Z" id="Shape"></path>
                            </g>
                        </g>
                    </g>
                </g>
            </g>
        </g>
    </g>
</svg>