<?xml version="1.0" encoding="UTF-8"?>
<svg width="41px" height="41px" viewBox="0 0 41 41" version="1.1" xmlns="http://www.w3.org/2000/svg" xmlns:xlink="http://www.w3.org/1999/xlink">
    <!-- Generator: Sketch 50.2 (55047) - http://www.bohemiancoding.com/sketch -->
    <title>Group</title>
    <desc>Created with Sketch.</desc>
    <defs></defs>
    <g id="4---Detailansicht-Produkt" stroke="none" stroke-width="1" fill="none" fill-rule="evenodd">
        <g id="Desktop-HD-Copy-3" transform="translate(-838.000000, -744.000000)">
            <g id="Product" transform="translate(125.000000, 311.000000)">
                <g id="Group" transform="translate(713.000000, 433.000000)">
                    <circle id="Oval-3" fill="#F8F6F5" cx="20.5" cy="20.5" r="20.5"></circle>
                    <g id="Merkliste" transform="translate(8.000000, 11.000000)" fill="#000000" fill-rule="nonzero">
                        <path d="M17.5284091,1.11607143 C20.9090909,1.11607143 23.6647727,3.82254464 23.6647727,7.14285714 C23.6647727,8.70535714 23.0681818,10.1841518 21.9602273,11.3002232 L21.7897727,11.4955357 L12.5,20.6194196 L3.26704545,11.5513393 L3.03977273,11.3002232 C1.93181818,10.15625 1.33522727,8.67745536 1.33522727,7.14285714 C1.33522727,3.82254464 4.09090909,1.11607143 7.47159091,1.11607143 C9.0625,1.11607143 10.5681818,1.70200893 11.7045455,2.79017857 L11.9034091,2.95758929 L12.5,3.54352679 L12.5284091,3.515625 L13.0681818,2.98549107 L13.3238636,2.76227679 C14.4318182,1.72991071 15.9375,1.11607143 17.5284091,1.11607143 Z M17.5284091,0 C15.5681818,0 13.8068182,0.753348214 12.5,1.98102679 C11.1931818,0.78125 9.40340909,0 7.47159091,0 C3.4375,0 0.198863636,3.20870536 0.198863636,7.14285714 C0.198863636,9.06808036 0.965909091,10.7979911 2.21590909,12.0814732 L12.5,22.2098214 L22.7840909,12.109375 C24.0340909,10.8258929 24.8011364,9.09598214 24.8011364,7.17075893 C24.8011364,3.20870536 21.5625,0 17.5284091,0 Z" id="Shape"></path>
                    </g>
                </g>
            </g>
        </g>
    </g>
</svg>