<?xml version="1.0" encoding="UTF-8"?>
<svg width="60px" height="60px" viewBox="0 0 60 60" version="1.1" xmlns="http://www.w3.org/2000/svg" xmlns:xlink="http://www.w3.org/1999/xlink">
    <!-- Generator: Sketch 50.2 (55047) - http://www.bohemiancoding.com/sketch -->
    <title>noun_1156200_cc</title>
    <desc>Created with Sketch.</desc>
    <defs></defs>
    <g id="Symbols" stroke="none" stroke-width="1" fill="none" fill-rule="evenodd">
        <g id="Kids-1-Nav" transform="translate(-1286.000000, -30.000000)" fill="#BD1E5A" fill-rule="nonzero">
            <g id="noun_1156200_cc" transform="translate(1286.000000, 30.000000)">
                <g id="Group">
                    <path d="M30.029855,0.0372850299 C13.4943834,0.0372850299 0.0897352096,13.4419332 0.0897352096,29.9774048 C0.0897352096,46.5128763 13.4943834,59.9175246 30.029855,59.9175246 C37.9704684,59.9175246 45.5858551,56.7631281 51.2007167,51.1482665 C56.8155783,45.5334049 59.9699747,37.9180183 59.9699747,29.9774048 C59.9699747,13.4419332 46.5653265,0.0372850299 30.029855,0.0372850299 Z M21.1668777,15.6686 C24.4633484,15.6813868 27.8781819,17.3985749 30.029855,21.346697 C35.3262789,11.6282383 48.276019,15.4269749 48.276019,24.892497 C48.276019,35.9839246 37.6487424,37.1620766 30.029855,48.5912707 C22.4109699,37.1620766 11.7836909,35.9839246 11.7836909,24.892497 C11.7836909,19.2723437 16.348958,15.6499006 21.1668777,15.6686 Z" id="Shape"></path>
                </g>
            </g>
        </g>
    </g>
</svg>