<?xml version="1.0" encoding="UTF-8"?>
<svg width="100px" height="100px" viewBox="0 0 100 100" version="1.1" xmlns="http://www.w3.org/2000/svg" xmlns:xlink="http://www.w3.org/1999/xlink">
    <!-- Generator: Sketch 50.2 (55047) - http://www.bohemiancoding.com/sketch -->
    <title>Group</title>
    <desc>Created with Sketch.</desc>
    <defs></defs>
    <g id="4---Detailansicht-Produkt" stroke="none" stroke-width="1" fill="none" fill-rule="evenodd">
        <g id="Desktop-HD" transform="translate(-901.000000, -666.000000)">
            <g id="noun_1156200_cc" transform="translate(901.000000, 666.000000)">
                <g id="Group" transform="translate(0.049942, 0.137185)">
                    <ellipse id="Oval" fill="#BD1E5A" cx="50" cy="50" rx="42" ry="43"></ellipse>
                    <path d="M49.9500576,0.0620179283 C22.445837,0.0620179283 0.149260757,22.3585941 0.149260757,49.8628147 C0.149260757,77.3670354 22.445837,99.6636116 49.9500576,99.6636116 C63.1580501,99.6636116 75.8250776,94.416757 85.1645387,85.0772959 C94.5039998,75.7378348 99.7508544,63.0708073 99.7508544,49.8628147 C99.7508544,22.3585941 77.4542782,0.0620179283 49.9500576,0.0620179283 Z M35.2078544,26.0623127 C40.6910277,26.0835817 46.3710795,28.9398606 49.9500576,35.5069562 C58.7598464,19.3417908 80.2997528,25.6604064 80.2997528,41.4048506 C80.2997528,59.853739 62.6229082,61.8134143 49.9500576,80.8241255 C37.277211,61.8134143 19.6003624,59.853739 19.6003624,41.4048506 C19.6003624,32.0565876 27.1939839,26.0312092 35.2078544,26.0623127 Z" id="Shape" fill="#F8F6F5" fill-rule="nonzero"></path>
                </g>
            </g>
        </g>
    </g>
</svg>