<?xml version="1.0" encoding="UTF-8"?>
<svg width="30px" height="30px" viewBox="0 0 30 30" version="1.1" xmlns="http://www.w3.org/2000/svg" xmlns:xlink="http://www.w3.org/1999/xlink">
    <!-- Generator: Sketch 50.2 (55047) - http://www.bohemiancoding.com/sketch -->
    <title>Group 3</title>
    <desc>Created with Sketch.</desc>
    <defs></defs>
    <g id="Symbols" stroke="none" stroke-width="1" fill="none" fill-rule="evenodd">
        <g id="Book" transform="translate(-176.000000, -8.000000)">
            <g id="Group-3">
                <g>
                    <g transform="translate(176.000000, 8.000000)">
                        <circle id="Oval-2" fill="#FEFEFE" cx="15" cy="15" r="15"></circle>
                        <g id="Merkliste" transform="translate(8.500000, 9.500000)" fill="#BD1E5A" stroke="#BD1E5A" stroke-linecap="round" stroke-linejoin="round">
                            <g id="heart">
                                <path d="M11.9975785,1.00242149 C11.3560562,0.36059801 10.4857845,-5.52373114e-16 9.57832201,0 C8.6708595,2.76186557e-16 7.80058778,0.36059801 7.15906551,1.00242149 L6.49983366,1.66165334 L5.84060181,1.00242149 C4.50448334,-0.333696943 2.33820731,-0.333696927 1.00208885,1.00242153 C-0.334029603,2.33853999 -0.33402962,4.50481601 1.00208882,5.84093449 L1.66132066,6.50016634 L6.49983366,11.3386793 L11.3383467,6.50016634 L11.9975785,5.84093449 C12.639402,5.19941222 13,4.3291405 13,3.42167799 C13,2.51421548 12.639402,1.64394376 11.9975785,1.00242149 Z" id="Shape"></path>
                            </g>
                        </g>
                    </g>
                </g>
            </g>
        </g>
    </g>
</svg>